<svg width="139" height="74" xmlns="http://www.w3.org/2000/svg">

 <g>
  <title>background</title>
  <rect fill="none" id="canvas_background" height="602" width="802" y="-1" x="-1"/>
 </g>
 <g>
  <title>Layer 1</title>
  <path id="svg_1" fill="#B9721F" d="m33.8979,5.7505c16.6126,-1.59736 70.6031,-1.91684 75.3951,-2.23631c26.517,0 27.475,9.58421 29.073,31.62781c1.597,22.0436 -0.32,27.1552 -12.46,34.5031c-12.14,7.3478 -89.4523,3.1947 -108.9402,1.2779c-19.48779,-1.9169 -15.97359,-21.7242 -13.41781,-43.1289c2.55578,-21.40465 13.73731,-20.44624 30.34991,-22.0436z" opacity="0.5"/>
  <path id="svg_2" fill="#03528F" d="m32.3668,2.23631c16.6126,-1.59736 70.6032,-1.91684 75.3952,-2.23631c26.517,0 27.475,9.58418 29.072,31.6278c1.598,22.0436 0.22,27.7941 -12.459,34.5031c-12.543,6.6369 -89.4524,3.1947 -108.9402,1.2779c-19.48789,-1.9169 -15.97369,-21.7242 -13.41791,-43.1289c2.55579,-21.40464 13.73731,-20.44623 30.34991,-22.04359z"/>
  <path id="svg_3" fill="#000000" d="m34.0568,5.23523c15.8403,-1.4575 67.3212,-1.749 71.8902,-2.0405c25.284,0 26.198,8.74497 27.721,28.85837c1.523,20.1135 0.209,25.3605 -11.88,31.4819c-11.96,6.0558 -85.2942,2.915 -103.8761,1.166c-18.58183,-1.749 -15.231,-19.8219 -12.79404,-39.3523c2.43697,-19.53048 13.09874,-18.65598 28.93894,-20.11347z"/>
 </g>
</svg>