<svg width="82" height="76" viewBox="0 0 82 76" fill="none" xmlns="http://www.w3.org/2000/svg">
<path opacity="0.1" d="M74.9694 41.2791C74.9694 60.0626 57.9413 75.2896 36.9361 75.2896C20.1137 75.2896 0 54.8102 0 39.4506C0 20.6671 15.931 8 36.9361 8C57.9413 8 74.9694 24.4567 74.9694 41.2791Z" fill="#1E3C68"/>
<path d="M82 34.1805C82 53.4727 64.5107 69.1122 42.9366 69.1122C25.6585 69.1122 5 48.0781 5 32.3024C5 13.0102 21.3625 0 42.9366 0C64.5107 0 82 16.9024 82 34.1805Z" fill="#03528F"/>
<path d="M77.8683 33.0904C77.8683 50.4954 62.1706 64.6049 42.8065 64.6049C27.2984 64.6049 8.7561 45.6284 8.7561 31.3961C8.7561 13.9911 23.4424 2.25366 42.8065 2.25366C62.1706 2.25366 77.8683 17.5026 77.8683 33.0904Z" fill="#088EF5"/>
<path opacity="0.3" d="M67.032 44.3109L68.5568 29.17C68.794 26.8143 66.9445 24.7692 64.5769 24.7692H41.627C40.7683 24.7692 40.0723 24.0732 40.0723 23.2145C40.0723 21.9145 38.5715 21.1886 37.5524 21.9958L24.178 32.5884C22.0884 34.2434 22.1716 37.4406 24.3445 38.9847L38.7173 49.1981C39.9349 50.0634 41.6416 49.4304 42.0006 47.9804C42.2503 46.9718 43.1946 46.2932 44.2302 46.3783L62.7249 47.8966C64.8979 48.075 66.8136 46.4802 67.032 44.3109Z" fill="#03528F"/>
<path d="M62.1986 40.2471L63.596 25.1376C63.8128 22.793 61.9676 20.7692 59.613 20.7692H38.9321C38.1046 20.7692 37.4337 20.0984 37.4337 19.2708C37.4337 17.9886 35.9278 17.2987 34.9568 18.1361L22.707 28.7005C20.7916 30.3524 20.8711 33.3452 22.8715 34.8931L36.0346 45.0783C37.1927 45.9745 38.8896 45.3659 39.2143 43.938C39.4366 42.9602 40.3475 42.2974 41.3463 42.3867L57.8594 43.8629C60.055 44.0592 61.9956 42.4421 62.1986 40.2471Z" fill="white"/>
</svg>
