<svg width="62" height="57" viewBox="0 0 62 57" fill="none" xmlns="http://www.w3.org/2000/svg">
<path opacity="0.1" d="M58.3064 30.5488C58.3064 45.1574 45.0631 57 28.7266 57C15.6432 57 0 41.0724 0 29.1267C0 14.5181 12.3901 4.66641 28.7266 4.66641C45.0631 4.66641 58.3064 17.4654 58.3064 30.5488Z" fill="#1E3C68"/>
<path d="M61.4411 26.5834C61.4411 41.5877 47.8391 53.7511 31.0601 53.7511C17.6223 53.7511 1.55542 37.3921 1.55542 25.1228C1.55542 10.1185 14.2811 0 31.0601 0C47.8391 0 61.4411 13.1456 61.4411 26.5834Z" fill="#C61D27"/>
<path d="M58.2278 25.7356C58.2278 39.2721 46.0191 50.2456 30.9589 50.2456C18.8977 50.2456 4.47668 35.4869 4.47668 24.4179C4.47668 10.8814 15.8988 1.75275 30.9589 1.75275C46.0191 1.75275 58.2278 13.6124 58.2278 25.7356Z" fill="#E6391C"/>
<path d="M42.1413 19.2285L22.5145 34.4194C21.4939 35.2093 20.0022 34.8241 19.4917 33.6387C19.1388 32.8193 19.3791 31.8649 20.0781 31.3103L39.5201 15.8838C40.4216 15.1685 41.7287 15.3009 42.4684 16.1825C43.2438 17.1066 43.0952 18.4901 42.1413 19.2285Z" fill="white"/>
<path d="M41.6577 33.4188L23.4771 16.384C22.6747 15.6322 21.4057 15.7083 20.6989 16.5506C20.0317 17.3457 20.1188 18.5274 20.8953 19.2161L39.535 35.7473C40.1986 36.3359 41.2172 36.2608 41.7874 35.5813C42.3252 34.9403 42.2682 33.9908 41.6577 33.4188Z" fill="white"/>
</svg>
