<svg width="62" height="57" viewBox="0 0 62 57" fill="none" xmlns="http://www.w3.org/2000/svg">
<path opacity="0.1" d="M58.3064 30.5488C58.3064 45.1574 45.0631 57 28.7266 57C15.6432 57 0 41.0724 0 29.1267C0 14.5181 12.3901 4.66641 28.7266 4.66641C45.0631 4.66641 58.3064 17.4654 58.3064 30.5488Z" fill="#1E3C68"/>
<path d="M61.4411 26.5834C61.4411 41.5877 47.8391 53.7511 31.0601 53.7511C17.6223 53.7511 1.55542 37.3921 1.55542 25.1228C1.55542 10.1185 14.2811 0 31.0601 0C47.8391 0 61.4411 13.1456 61.4411 26.5834Z" fill="#03528F"/>
<path d="M58.2278 25.7356C58.2278 39.2721 46.0191 50.2456 30.9589 50.2456C18.8977 50.2456 4.47668 35.4869 4.47668 24.4179C4.47668 10.8814 15.8988 1.75275 30.9589 1.75275C46.0191 1.75275 58.2278 13.6124 58.2278 25.7356Z" fill="#088EF5"/>
<path d="M44.3971 17.0286L19.5203 15.6655C18.4224 15.6053 17.4991 16.4793 17.4991 17.5789C17.4991 18.6168 18.3254 19.466 19.3629 19.4945L44.2678 20.1768C45.1545 20.2011 45.8865 19.4889 45.8865 18.6018C45.8865 17.7651 45.2326 17.0744 44.3971 17.0286Z" fill="white"/>
<path d="M44.0159 23.7008L19.0762 22.9883C18.2126 22.9636 17.4991 23.657 17.4991 24.5209C17.4991 25.3677 18.1856 26.0542 19.0324 26.0542H43.9822C44.8571 26.0542 45.4262 25.1335 45.0349 24.3509C44.8409 23.963 44.4494 23.7132 44.0159 23.7008Z" fill="white"/>
<path d="M43.678 35.2998L18.8785 34.3209C17.5889 34.27 16.6938 33.0161 17.0647 31.7799C17.3211 30.9253 18.1186 30.3487 19.0105 30.3731L43.82 31.0528C44.9703 31.0843 45.8865 32.026 45.8865 33.1768C45.8865 34.3831 44.8834 35.3474 43.678 35.2998Z" fill="white"/>
</svg>
