<svg width="79" height="74" viewBox="0 0 79 74" fill="none" xmlns="http://www.w3.org/2000/svg">
<path opacity="0.5" d="M74.9694 39.7281C74.9694 58.5116 57.9413 73.7386 36.9361 73.7386C20.1137 73.7386 0 53.2591 0 37.8995C0 19.1161 15.931 6.44897 36.9361 6.44897C57.9413 6.44897 74.9694 22.9057 74.9694 39.7281Z" fill="#1E3C68"/>
<path d="M79 33.2791C79 52.0626 61.9719 67.2896 40.9668 67.2896C24.1443 67.2896 4.03061 46.8102 4.03061 31.4506C4.03061 12.6671 19.9616 0 40.9668 0C61.9719 0 79 16.4567 79 33.2791Z" fill="#0B2148"/>
<path d="M74.9773 32.2177C74.9773 49.1637 59.6935 62.9011 40.8401 62.9011C25.741 62.9011 7.68766 44.4251 7.68766 30.5681C7.68766 13.6221 21.9867 2.19421 40.8401 2.19421C59.6935 2.19421 74.9773 17.041 74.9773 32.2177Z" fill="#03528F"/>
<path d="M38.9492 17.5C38.457 17.5 37.9648 17.7461 37.6367 18.1562L30.3359 25.375H21.9688C20.8203 25.375 20 26.2773 20 27.3438V39.1562C20 40.3047 20.8203 41.125 21.9688 41.125H30.3359L37.6367 48.4258C37.9648 48.8359 38.457 49 38.9492 49C40.0156 49 41 48.2617 41 47.0312V19.5508C41 18.3203 40.0156 17.5 38.9492 17.5ZM37.0625 42.3555L33.125 38.418L31.8945 37.1875H23.9375V29.3125H31.8945L33.125 28.1641L37.0625 24.2266V42.3555ZM58.1445 33.25L61.5898 29.8867C62.082 29.3945 62.082 28.5742 61.5898 28L60.6875 27.0977C60.1133 26.6055 59.293 26.6055 58.8008 27.0977L55.4375 30.543L51.9922 27.0977C51.5 26.6055 50.6797 26.6055 50.1875 27.0977L49.2031 28C48.7109 28.5742 48.7109 29.3945 49.2031 29.8867L52.6484 33.25L49.2031 36.6953C48.7109 37.1875 48.7109 38.0078 49.2031 38.5L50.1875 39.4844C50.6797 39.9766 51.5 39.9766 51.9922 39.4844L55.4375 36.0391L58.8008 39.4844C59.293 39.9766 60.1133 39.9766 60.6875 39.4844L61.5898 38.5C62.082 38.0078 62.082 37.1875 61.5898 36.6953L58.1445 33.25Z" fill="#088EF5"/>
</svg>
