<svg width="120" height="112" viewBox="0 0 120 112" fill="none" xmlns="http://www.w3.org/2000/svg">
<path opacity="0.1" d="M113.869 60.3421C113.869 88.8719 88.0059 112 56.1015 112C30.5503 112 0 80.8941 0 57.5648C0 29.0349 24.1972 9.79517 56.1015 9.79517C88.0059 9.79517 113.869 34.7909 113.869 60.3421Z" fill="#0B2148"/>
<path d="M119.992 50.5469C119.992 79.0768 94.1279 102.205 62.2236 102.205C36.6724 102.205 6.12207 71.099 6.12207 47.7696C6.12207 19.2398 30.3193 0 62.2236 0C94.1279 0 119.992 24.9957 119.992 50.5469Z" fill="#03528F"/>
<path d="M113.882 48.9349C113.882 74.6738 90.6674 95.5392 62.0313 95.5392C39.0976 95.5392 11.6768 67.4764 11.6768 46.4293C11.6768 20.6904 33.3952 3.33276 62.0313 3.33276C90.6674 3.33276 113.882 25.8833 113.882 48.9349Z" fill="#088EF5"/>
<path d="M55.1614 77.144C44.4862 65.4274 47.5997 24.1401 52.0478 21.3505C59.0136 21.3505 80.7852 36.7088 89.3076 43.346C91.0609 44.7114 91.1663 47.1969 89.6016 48.7748C80.5731 57.8793 57.758 79.9939 55.1614 77.144Z" fill="white"/>
</svg>
