<svg width="66" height="59" viewBox="0 0 66 59" fill="none" xmlns="http://www.w3.org/2000/svg">
<path opacity="0.6" d="M66 29.1793C66 45.6488 51.0092 59 32.5171 59C17.7073 59 0 41.0435 0 27.5761C0 11.1066 14.025 0 32.5171 0C51.0092 0 66 14.4293 66 29.1793Z" fill="#991920"/>
<path d="M17.7145 43.2891L16.2895 22.2706C16.1329 19.9602 17.9647 18 20.2804 18H38.8873C39.778 18 40.5 17.278 40.5 16.3873C40.5 14.8868 42.3696 14.1996 43.3414 15.3429L55.1749 29.2646C56.4977 30.8208 56.4356 33.1235 55.031 34.6062L42.3337 48.0089C41.1692 49.2381 39.101 48.606 38.8226 46.9358C38.6422 45.8533 37.6413 45.1047 36.5519 45.2376L22.1896 46.9891C19.913 47.2667 17.8696 45.5772 17.7145 43.2891Z" fill="#6E0000"/>
<path d="M19.7145 38.2891L18.2895 17.2706C18.1329 14.9602 19.9647 13 22.2804 13H40.8873C41.778 13 42.5 12.278 42.5 11.3873C42.5 9.8868 44.3696 9.19957 45.3414 10.3429L57.1749 24.2646C58.4977 25.8208 58.4356 28.1235 57.031 29.6062L44.3337 43.0089C43.1692 44.2381 41.101 43.606 40.8226 41.9358C40.6422 40.8533 39.6413 40.1047 38.5519 40.2376L24.1896 41.9891C21.913 42.2667 19.8696 40.5772 19.7145 38.2891Z" fill="#FECB00"/>
</svg>
