<svg width="79" height="74" viewBox="0 0 79 74" fill="none" xmlns="http://www.w3.org/2000/svg">
<path opacity="0.5" d="M74.9694 39.7281C74.9694 58.5116 57.9413 73.7386 36.9361 73.7386C20.1137 73.7386 0 53.2591 0 37.8995C0 19.1161 15.931 6.44897 36.9361 6.44897C57.9413 6.44897 74.9694 22.9057 74.9694 39.7281Z" fill="#1E3C68"/>
<path d="M79 33.2791C79 52.0626 61.972 67.2896 40.9668 67.2896C24.1444 67.2896 4.03064 46.8102 4.03064 31.4506C4.03064 12.6671 19.9616 0 40.9668 0C61.972 0 79 16.4567 79 33.2791Z" fill="#C61D27"/>
<path d="M74.9773 32.2177C74.9773 49.1637 59.6936 62.9011 40.8402 62.9011C25.7411 62.9011 7.68774 44.4251 7.68774 30.5681C7.68774 13.6221 21.9867 2.19421 40.8402 2.19421C59.6936 2.19421 74.9773 17.041 74.9773 32.2177Z" fill="#E6391C"/>
<path d="M56.2383 27.3438L58.125 25.5391C58.5352 25.1289 58.5352 24.5547 58.125 24.1445L56.7305 22.75C56.3203 22.3398 55.7461 22.3398 55.3359 22.75L53.6133 24.4727C51.0703 22.1758 47.8711 20.6992 44.3438 20.2891V16.1875H46.6406C47.1328 16.1875 47.625 15.7773 47.625 15.2031V13.2344C47.625 12.7422 47.1328 12.25 46.6406 12.25H38.1094C37.5352 12.25 37.125 12.7422 37.125 13.2344V15.2031C37.125 15.7773 37.5352 16.1875 38.1094 16.1875H40.4062V20.2891C31.875 21.2734 25.3125 28.4922 25.3125 37.1875C25.3125 46.6211 32.9414 54.25 42.375 54.25C51.7266 54.25 59.4375 46.6211 59.4375 37.1875C59.4375 33.5781 58.207 30.1328 56.2383 27.3438ZM42.375 50.3125C35.0742 50.3125 29.25 44.4883 29.25 37.1875C29.25 29.9688 35.0742 24.0625 42.375 24.0625C49.5938 24.0625 55.5 29.9688 55.5 37.1875C55.5 44.4883 49.5938 50.3125 42.375 50.3125ZM43.3594 41.125C43.8516 41.125 44.3438 40.7148 44.3438 40.1406V28.9844C44.3438 28.4922 43.8516 28 43.3594 28H41.3906C40.8164 28 40.4062 28.4922 40.4062 28.9844V40.1406C40.4062 40.7148 40.8164 41.125 41.3906 41.125H43.3594Z" fill="white"/>
</svg>
