<svg width="109" height="108" xmlns="http://www.w3.org/2000/svg">

 <g>
  <title>background</title>
  <rect fill="none" id="canvas_background" height="602" width="802" y="-1" x="-1"/>
 </g>
 <g>
  <title>Layer 1</title>
  <path id="svg_1" fill="#B9721F" d="m5.13331,21.078c0.72747,-19.31575 33.96539,-13.15964 69.12639,-15.09121c40.7383,-0.72434 28.5763,2.65591 29.7883,13.03811c1.213,10.3822 2.266,38.497 3.721,56.364c1.455,17.8671 -0.326,21.8647 -5.661,25.9691c-5.3343,4.105 -8.7292,5.553 -48.74,6.036c-40.0108,0.483 -48.013,-4.104 -51.16537,-9.1746c-3.15236,-5.0704 2.20321,-57.8257 2.93068,-77.1414z" opacity="0.5"/>
  <path id="svg_2" fill="#3C6817" d="m2.10367,19.2538c0.7277,-19.40194 27.89513,-17.21922 63.06723,-19.15941c40.7511,-0.72758 36.8701,2.66776 38.0831,13.09631c1.213,10.4286 2.267,38.6689 3.722,56.6157c1.455,17.9468 -0.326,21.9622 -5.663,26.0851c-5.3361,4.1225 -8.732,5.5785 -48.7555,6.0635c-40.0235,0.485 -48.02816,-4.1233 -51.18153,-9.2163c-3.15336,-5.093 0,-54.0829 0.7277,-73.4849z"/>
 </g>
</svg>