<svg width="26" height="25" viewBox="0 0 26 25" fill="none" xmlns="http://www.w3.org/2000/svg">
<path opacity="0.1" d="M24.6735 13.0751C24.6735 19.257 19.0693 24.2684 12.1562 24.2684C6.61971 24.2684 0 17.5283 0 12.4733C0 6.29137 5.2431 2.12245 12.1562 2.12245C19.0693 2.12245 24.6735 7.53858 24.6735 13.0751Z" fill="#0B2148"/>
<path d="M26 10.9526C26 17.1345 20.3958 22.1459 13.4827 22.1459C7.94625 22.1459 1.32654 15.4059 1.32654 10.3508C1.32654 4.16892 6.56964 0 13.4827 0C20.3958 0 26 5.41613 26 10.9526Z" fill="#03528F"/>
<path d="M24.6761 10.6033C24.6761 16.1805 19.646 20.7016 13.441 20.7016C8.47172 20.7016 2.53012 14.6209 2.53012 10.0604C2.53012 4.48324 7.23612 0.722153 13.441 0.722153C19.646 0.722153 24.6761 5.60844 24.6761 10.6033Z" fill="#088EF5"/>
<path d="M11.9525 16.7157C9.78899 14.3412 10.2393 6.36124 11.0952 4.84428C11.1875 4.68059 11.3756 4.62108 11.5602 4.65661C13.2716 4.98606 17.4392 7.9156 19.2452 9.31C19.685 9.64953 19.7122 10.2701 19.3204 10.664C17.3041 12.6911 12.5063 17.3235 11.9525 16.7157Z" fill="white"/>
</svg>
