<svg width="190.00000000000003" height="102" xmlns="http://www.w3.org/2000/svg">

 <g>
  <title>background</title>
  <rect fill="none" id="canvas_background" height="602" width="802" y="-1" x="-1"/>
 </g>
 <g>
  <title>Layer 1</title>
  <path id="svg_1" fill="#B9721F" d="m45.4043,7.88918c22.791,-2.19144 96.8617,-2.62973 103.4357,-3.06801c36.378,0 37.693,13.14863 39.884,43.39043c2.192,30.2419 -0.438,37.2545 -17.093,47.3351c-16.655,10.0803 -122.7204,4.3829 -149.4559,1.7532c-26.73557,-2.6298 -21.91441,-29.8036 -18.40811,-59.1689c3.50631,-29.36524 18.84641,-28.0504 41.63731,-30.24182z" opacity="0.5"/>
  <path id="svg_2" fill="#03528F" d="m44.4043,3.06801c22.791,-2.19144 96.8617,-2.62972 103.4357,-3.06801c36.378,0 37.693,13.1486 39.884,43.3905c2.192,30.2418 0.301,38.131 -17.093,47.335c-17.207,9.1053 -122.7204,4.3829 -149.4559,1.7532c-26.73557,-2.6297 -21.91441,-29.8036 -18.40811,-59.1688c3.50631,-29.36531 18.84641,-28.05045 41.63731,-30.24189z"/>
 </g>
</svg>