<svg width="139" height="74" viewBox="0 0 139 74" fill="none" xmlns="http://www.w3.org/2000/svg">
<path opacity="0.5" d="M33.8979 5.7505C50.5105 4.15314 104.501 3.83366 109.293 3.51419C135.81 3.51419 136.768 13.0984 138.366 35.142C139.963 57.1856 138.046 62.2972 125.906 69.6451C113.766 76.9929 36.4537 72.8398 16.9658 70.923C-2.52199 69.0061 0.992209 49.1988 3.54799 27.7941C6.10377 6.38945 17.2853 7.34786 33.8979 5.7505Z" fill="#B9721F"/>
<path d="M32.3668 2.23631C48.9794 0.638946 102.97 0.319473 107.762 0C134.279 0 135.237 9.58418 136.834 31.6278C138.432 53.6714 137.054 59.4219 124.375 66.1309C111.832 72.7678 34.9226 69.3256 15.4348 67.4088C-4.05309 65.4919 -0.538889 45.6846 2.01689 24.2799C4.57268 2.87526 15.7542 3.83367 32.3668 2.23631Z" fill="#03528F"/>
<path d="M34.0568 5.23523C49.8971 3.77773 101.378 3.48623 105.947 3.19473C131.231 3.19473 132.145 11.9397 133.668 32.0531C135.191 52.1666 133.877 57.4136 121.788 63.535C109.828 69.5908 36.4938 66.45 17.9119 64.701C-0.669932 62.952 2.6809 44.8791 5.11786 25.3487C7.55483 5.81822 18.2166 6.69272 34.0568 5.23523Z" fill="#088EF5"/>
</svg>
