<svg xmlns="http://www.w3.org/2000/svg" width="432" height="421"><rect id="backgroundrect" width="100%" height="100%" x="0" y="0" fill="none" stroke="none"/>

 <mask height="381" width="396" y="11" x="24" maskUnits="userSpaceOnUse" id="mask0">
  <path id="svg_1" fill="#6A7293" d="m36.4814,82.0871c2.661,-71.634 102.0066,-63.5752 230.6236,-70.7386c149.018,-2.6863 134.826,9.8497 139.261,48.353c4.435,38.5033 6.091,119.4975 11.413,185.7585c5.322,66.262 -0.91,92.21 -18.65,111.013c-17.008,18.028 -55.243,32.846 -201.6,34.637c-162.5243,1.988 -158.0976,-15.833 -169.6288,-34.637c-11.5312,-18.803 5.9201,-202.752 8.5812,-274.3859z"/>
 </mask>
 <g style="">
  <title>background</title>
  <rect fill="none" id="canvas_background" height="602" width="802" y="-1" x="-1"/>
 </g>
 <g style="" class="currentLayer">
  <title>Layer 1</title>
  <g id="svg_4" mask="url(#mask0)" class="selected" stroke="#ffffff" stroke-opacity="1" fill="#ffffff" fill-opacity="1" opacity="1">
   <rect id="svg_5" fill="#ffffff" height="396" width="396" y="3" x="24" stroke="#ffffff" stroke-opacity="1" fill-opacity="1" opacity="1"/>
  </g>
 </g>
</svg>